<svg width="188" height="121" viewBox="0 0 188 121" fill="none" xmlns="http://www.w3.org/2000/svg">
<g filter="url(#filter0_ddd_3_3307)">
<path fill-rule="evenodd" clip-rule="evenodd" d="M42.4585 0.0857872C46.2125 0.0741059 49.9663 0.0857872 53.7201 0.120761C54.4019 0.139647 54.8099 0.477774 54.9442 1.135C54.9456 5.87025 54.9922 10.6034 55.0841 15.3344C55.2318 15.7699 55.4183 16.1896 55.6437 16.5934C56.6462 18.2722 57.6488 19.9509 58.6514 21.6297C59.1599 22.4313 59.4397 22.3613 59.4908 21.4198C59.5139 14.6582 59.5376 7.89663 59.5607 1.135C59.6796 0.503235 60.0643 0.165178 60.7149 0.120761C64.492 0.0741059 68.2692 0.0741059 72.0464 0.120761C72.5486 0.167206 72.9102 0.412023 73.1306 0.855211C73.2474 30.2297 73.2705 59.6078 73.2005 88.9893C73.0277 89.5356 72.6661 89.8965 72.1163 90.0735C68.386 91.2857 64.655 92.4985 60.9247 93.7107C60.6449 93.7576 60.3651 93.7576 60.0853 93.7107C59.8874 93.6058 59.7356 93.454 59.6307 93.2561C59.5376 76.0056 59.4908 58.7516 59.4908 41.4948C59.3908 40.7813 59.134 40.1287 58.7214 39.5363C57.6954 37.8107 56.6696 36.0858 55.6437 34.3601C55.535 34.1783 55.3834 34.0964 55.189 34.1153C55.0795 34.3203 55.0211 34.542 55.0141 34.7798C54.9927 54.7618 54.9927 74.743 55.0141 94.725C54.9074 95.3216 54.5693 95.7294 53.9999 95.9491C50.0548 97.2837 46.0912 98.5539 42.1088 99.7612C41.5841 99.7143 41.2693 99.4346 41.1645 98.9218C41.1178 66.3493 41.1178 33.7775 41.1645 1.20495C41.32 0.514916 41.7513 0.141815 42.4585 0.0857872Z" fill="#FEFFFE"/>
<path fill-rule="evenodd" clip-rule="evenodd" d="M115.694 0.0857872C119.378 0.0741059 123.061 0.0857872 126.745 0.120761C127.433 0.20239 127.818 0.587102 127.9 1.2749C127.905 3.9327 127.893 6.59071 127.865 9.24893C127.855 10.9533 127.89 12.6555 127.97 14.3551C128.043 14.6185 128.136 14.875 128.249 15.1245C129.392 17.0364 130.535 18.9484 131.677 20.8602C131.797 21.0041 131.937 21.1207 132.096 21.21C132.212 21.1876 132.282 21.1177 132.306 21.0001C132.329 20.8136 132.353 20.6271 132.376 20.4406C132.399 14.0054 132.423 7.57019 132.446 1.135C132.491 0.706433 132.713 0.414961 133.111 0.260656C133.385 0.183574 133.665 0.136919 133.95 0.120761C137.68 0.0741059 141.411 0.0741059 145.142 0.120761C145.541 0.113207 145.914 0.206447 146.261 0.400552C146.409 0.521631 146.514 0.673208 146.576 0.855211C146.692 33.611 146.716 66.3703 146.646 99.1317C146.588 99.494 146.39 99.7388 146.051 99.8661C145.719 99.9172 145.393 99.8934 145.072 99.7962C141.22 98.5511 137.373 97.2921 133.53 96.019C132.983 95.8441 132.621 95.4825 132.446 94.9348C132.423 76.7953 132.399 58.6551 132.376 40.5155C132.325 39.9888 132.162 39.4992 131.887 39.0466C130.907 37.3679 129.928 35.6892 128.949 34.0104C128.754 33.6991 128.533 33.4075 128.284 33.1361C128.195 33.0885 128.113 33.0997 128.04 33.171C127.96 33.3725 127.914 33.5823 127.9 33.8006C127.878 53.5027 127.878 73.2042 127.9 92.9063C127.697 93.7128 127.196 93.9814 126.396 93.7107C122.824 92.5587 119.257 91.3934 115.694 90.2134C115.227 90.0728 114.889 89.7811 114.68 89.339C114.563 59.9169 114.54 30.4927 114.61 1.06505C114.766 0.500647 115.127 0.174201 115.694 0.0857872Z" fill="#FEFFFE"/>
<path fill-rule="evenodd" clip-rule="evenodd" d="M5.59611 0.155751C9.51325 0.144069 13.4303 0.155751 17.3473 0.190724C17.8253 0.295646 18.1167 0.587118 18.2217 1.06507C18.2985 15.4974 18.3335 29.9297 18.3266 44.3627C18.3102 58.8188 18.2985 73.2741 18.2916 87.7302C18.3311 88.2073 18.4244 88.6738 18.5714 89.1292C19.1131 90.8247 19.696 92.5035 20.3201 94.1654C20.5216 94.2724 20.6848 94.2256 20.8097 94.0255C21.3972 92.3097 21.9568 90.5841 22.4885 88.8494C22.6265 88.4157 22.7197 87.9729 22.7683 87.5204C22.7916 58.725 22.8149 29.9304 22.8382 1.13502C22.9198 0.587118 23.2346 0.272353 23.7825 0.190724C27.6763 0.144069 31.57 0.144069 35.4638 0.190724C36.0583 0.318938 36.4197 0.680358 36.548 1.27491C36.5946 29.5806 36.5946 57.8857 36.548 86.1914C36.3696 86.8279 36.1132 87.4343 35.7785 88.01C34.5484 90.2141 33.3359 92.4286 32.1413 94.6551C28.5681 100.473 24.9775 106.278 21.3693 112.072C20.6885 112.768 20.0823 112.698 19.5507 111.862C15.9833 106.103 12.416 100.344 8.84868 94.5851C7.65397 92.4055 6.44157 90.2372 5.2114 88.08C4.89684 87.5211 4.64035 86.9384 4.44197 86.3313C4.39532 57.9556 4.39532 29.5806 4.44197 1.20497C4.60173 0.606493 4.98645 0.256755 5.59611 0.155751Z" fill="#FEFFFE"/>
<path fill-rule="evenodd" clip-rule="evenodd" d="M152.206 0.295621C162.326 0.283939 172.444 0.295621 182.564 0.330595C183.042 0.435516 183.333 0.726988 183.438 1.20494C183.485 5.89143 183.485 10.5779 183.438 15.2644C183.311 15.8578 182.974 16.2891 182.424 16.5585C179.031 18.4993 175.651 20.4578 172.281 22.4341C171.884 22.6677 171.464 22.8426 171.022 22.9587C170.593 22.9139 170.325 22.681 170.218 22.2592C170.195 18.8085 170.171 15.3577 170.148 11.9069C170.146 11.3688 169.878 11.0774 169.344 11.0326C168.038 10.9859 166.732 10.9859 165.427 11.0326C164.925 11.0676 164.657 11.3357 164.622 11.837C164.575 36.6215 164.575 61.4068 164.622 86.1914C164.659 86.7677 164.775 87.3273 164.972 87.8701C165.639 90.0581 166.362 92.2264 167.14 94.3752C167.219 94.4948 167.324 94.5298 167.455 94.4802C167.603 94.3591 167.708 94.2074 167.77 94.0255C168.469 91.8802 169.169 89.7356 169.868 87.5903C170.015 87.1349 170.109 86.6684 170.148 86.1914C170.149 75.5327 170.195 64.8776 170.288 54.2253C170.432 53.8483 170.677 53.5573 171.022 53.3509C174.742 51.1294 178.496 48.961 182.284 46.8458C182.913 46.6646 183.298 46.8857 183.438 47.5103C183.485 60.5436 183.485 73.5777 183.438 86.611C183.33 87.1084 183.143 87.5742 182.879 88.01C181.532 90.4001 180.203 92.8021 178.892 95.2146C175.324 100.927 171.757 106.639 168.189 112.352C167.829 112.867 167.374 112.972 166.826 112.667C166.468 112.266 166.153 111.835 165.881 111.373C162.477 105.87 159.073 100.368 155.669 94.8649C154.293 92.3467 152.918 89.8286 151.542 87.3105C151.458 87.0818 151.388 86.8482 151.332 86.611C151.285 58.1423 151.285 29.6736 151.332 1.20494C151.45 0.726009 151.741 0.422926 152.206 0.295621Z" fill="#FEFFFE"/>
<path fill-rule="evenodd" clip-rule="evenodd" d="M78.6215 0.43551C79.0503 0.525603 79.4231 0.723835 79.7407 1.03007C83.2779 4.59124 86.9613 7.97209 90.7924 11.1725C91.2533 11.4926 91.5443 11.924 91.6667 12.4665C91.7262 20.9301 91.7612 29.3938 91.7717 37.8575C91.757 54.1777 91.7339 70.4986 91.7017 86.8209C91.6919 87.584 91.7968 88.3297 92.0165 89.0592C92.5299 90.7631 93.1133 92.4419 93.7652 94.0954C93.9491 94.2836 94.1128 94.2605 94.2548 94.0255C95.0354 91.8942 95.688 89.7258 96.2133 87.5204C96.2364 62.5022 96.2602 37.4847 96.2833 12.4665C96.4057 11.9471 96.6736 11.5158 97.0877 11.1725C101.058 7.87927 104.882 4.40518 108.559 0.750275C109.278 0.292397 109.756 0.467267 109.993 1.27488C110.04 29.6037 110.04 57.9325 109.993 86.2613C109.908 86.6551 109.768 87.0286 109.573 87.3805C108.221 89.8517 106.868 92.3237 105.516 94.7949C102.001 100.449 98.5041 106.115 95.0242 111.792C94.8263 112.084 94.5815 112.329 94.2898 112.527C93.9904 112.594 93.7106 112.548 93.4504 112.387C93.2021 112.115 92.9803 111.824 92.7859 111.512C89.2654 105.824 85.7443 100.134 82.2238 94.4452C81.006 92.2187 79.77 90.0042 78.5166 87.8001C78.2487 87.3343 78.0388 86.8447 77.887 86.3312C77.8402 57.9556 77.8402 29.5806 77.887 1.20493C77.9605 0.77028 78.2053 0.513852 78.6215 0.43551Z" fill="#FEFFFE"/>
</g>
<defs>
<filter id="filter0_ddd_3_3307" x="0.406982" y="0.0814056" width="187.066" height="120.756" filterUnits="userSpaceOnUse" color-interpolation-filters="sRGB">
<feFlood flood-opacity="0" result="BackgroundImageFix"/>
<feColorMatrix in="SourceAlpha" type="matrix" values="0 0 0 0 0 0 0 0 0 0 0 0 0 0 0 0 0 0 127 0" result="hardAlpha"/>
<feOffset dy="4"/>
<feGaussianBlur stdDeviation="2"/>
<feComposite in2="hardAlpha" operator="out"/>
<feColorMatrix type="matrix" values="0 0 0 0 0 0 0 0 0 0 0 0 0 0 0 0 0 0 0.25 0"/>
<feBlend mode="normal" in2="BackgroundImageFix" result="effect1_dropShadow_3_3307"/>
<feColorMatrix in="SourceAlpha" type="matrix" values="0 0 0 0 0 0 0 0 0 0 0 0 0 0 0 0 0 0 127 0" result="hardAlpha"/>
<feOffset dy="4"/>
<feGaussianBlur stdDeviation="2"/>
<feComposite in2="hardAlpha" operator="out"/>
<feColorMatrix type="matrix" values="0 0 0 0 0 0 0 0 0 0 0 0 0 0 0 0 0 0 0.25 0"/>
<feBlend mode="normal" in2="effect1_dropShadow_3_3307" result="effect2_dropShadow_3_3307"/>
<feColorMatrix in="SourceAlpha" type="matrix" values="0 0 0 0 0 0 0 0 0 0 0 0 0 0 0 0 0 0 127 0" result="hardAlpha"/>
<feOffset dy="4"/>
<feGaussianBlur stdDeviation="2"/>
<feComposite in2="hardAlpha" operator="out"/>
<feColorMatrix type="matrix" values="0 0 0 0 0 0 0 0 0 0 0 0 0 0 0 0 0 0 0.25 0"/>
<feBlend mode="normal" in2="effect2_dropShadow_3_3307" result="effect3_dropShadow_3_3307"/>
<feBlend mode="normal" in="SourceGraphic" in2="effect3_dropShadow_3_3307" result="shape"/>
</filter>
</defs>
</svg>
