<svg width="399" height="596" viewBox="0 0 399 596" fill="none" xmlns="http://www.w3.org/2000/svg">
<path d="M394.76 105.863C394.793 109.682 394.681 113.355 390.149 114.212C394.936 114.134 394.575 117.806 394.808 122.405C394.936 117.806 395.268 114.506 399 114.289C395.14 113.511 395.243 111.334 394.76 105.863Z" fill="#455A64"/>
<path d="M298.487 126.853C298.516 130.241 298.417 133.5 294.396 134.261C298.643 134.192 298.322 137.45 298.531 141.531C298.644 137.45 298.939 134.522 302.25 134.329C298.825 133.64 298.915 131.708 298.487 126.853Z" fill="#455A64"/>
<path d="M87.0318 112.468C87.0597 115.681 86.9659 118.773 83.1514 119.495C87.1806 119.429 86.8766 122.52 87.0733 126.391C87.1806 122.52 87.4603 119.743 90.6009 119.559C87.3521 118.905 87.4387 117.072 87.0318 112.468Z" fill="#455A64"/>
<path d="M134.426 24.7706C134.462 28.8643 134.341 32.8042 129.483 33.7231C134.616 33.6397 134.228 37.5774 134.479 42.5076C134.616 37.5763 134.973 34.0382 138.973 33.8043C134.835 32.9722 134.945 30.6372 134.426 24.7706Z" fill="#455A64"/>
<path d="M260.639 203.375C260.666 206.417 260.576 209.345 256.965 210.027C260.78 209.965 260.492 212.892 260.678 216.556C260.78 212.892 261.044 210.261 264.018 210.088C260.943 209.469 261.024 207.734 260.639 203.375Z" fill="#455A64"/>
<path d="M280.13 97.6278C280.178 103.049 280.018 108.266 273.583 109.483C280.381 109.372 279.867 114.586 280.2 121.116C280.381 114.585 280.853 109.9 286.151 109.59C280.671 108.488 280.817 105.397 280.13 97.6278Z" fill="#E5CE00"/>
<path d="M221.481 79.4648C221.509 82.6067 221.416 85.6311 217.686 86.337C221.627 86.2733 221.329 89.2955 221.522 93.0807C221.627 89.2955 221.901 86.5796 224.972 86.4007C221.794 85.7595 221.879 83.9679 221.481 79.4648Z" fill="#E5CE00"/>
<path d="M362.123 6.58676C362.149 9.50799 362.063 12.3194 358.595 12.9748C362.258 12.9155 361.981 15.7248 362.161 19.2432C362.258 15.7248 362.513 13.1999 365.368 13.033C362.414 12.438 362.493 10.7726 362.123 6.58676Z" fill="#E5CE00"/>
<path d="M42.532 233.762C42.5582 236.755 42.4707 239.637 38.9169 240.309C42.671 240.247 42.3877 243.127 42.5708 246.733C42.671 243.127 42.9317 240.539 45.8576 240.368C42.8316 239.759 42.9119 238.052 42.532 233.762Z" fill="#E5CE00"/>
<path d="M386.824 271.029C386.85 274.022 386.762 276.904 383.209 277.576C386.963 277.514 386.679 280.394 386.863 284C386.963 280.394 387.223 277.806 390.149 277.635C387.122 277.026 387.203 275.319 386.824 271.029Z" fill="#E5CE00"/>
<path d="M105.63 130.7C105.678 136.124 105.518 141.344 99.079 142.563C105.881 142.452 105.367 147.67 105.699 154.204C105.881 147.67 107.078 142.761 112.379 142.453C106.897 141.346 106.317 138.473 105.63 130.7Z" fill="#E5CE00"/>
<path d="M376.205 124.25C376.231 127.236 375.712 130.23 372.168 130.9C375.912 130.838 376.059 133.59 376.243 137.187C376.343 133.59 377.152 130.818 380.07 130.648C377.053 130.041 376.584 128.53 376.205 124.25Z" fill="#EBEBEB"/>
<path d="M98.3635 238.32C98.3897 241.306 97.8709 244.299 94.327 244.969C98.0712 244.908 98.2183 247.66 98.4014 251.256C98.5015 247.66 99.3108 244.888 102.229 244.718C99.2107 244.111 98.7415 242.599 98.3635 238.32Z" fill="#EBEBEB"/>
<path d="M155.217 154.86C155.243 157.846 154.726 160.84 151.181 161.509C154.925 161.448 155.072 164.2 155.255 167.796C155.355 164.2 156.165 161.428 159.082 161.258C156.065 160.651 155.596 159.139 155.217 154.86Z" fill="#EBEBEB"/>
<path d="M165.643 0C165.689 5.16621 164.792 10.3478 158.658 11.5082C165.138 11.4028 165.393 16.1639 165.71 22.3884C165.882 16.1639 167.283 11.3676 172.333 11.0734C167.11 10.0207 166.297 7.40461 165.643 0Z" fill="#EBEBEB"/>
<path d="M364.176 242.98C364.223 248.249 363.308 253.533 357.053 254.716C363.66 254.609 363.921 259.464 364.244 265.813C364.42 259.464 365.849 254.574 370.999 254.273C365.672 253.199 364.844 250.532 364.176 242.98Z" fill="#EBEBEB"/>
<path d="M14.4814 254.73C14.5265 259.811 13.6441 264.907 7.61105 266.048C13.9834 265.944 14.2351 270.627 14.5473 276.749C14.7169 270.627 16.0945 265.911 21.0612 265.62C15.924 264.586 15.1256 262.012 14.4814 254.73Z" fill="#EBEBEB"/>
<path d="M380.432 21.1435C380.481 26.7675 380.316 32.1796 373.641 33.4421C380.693 33.3268 380.16 38.7356 380.505 45.5101C380.693 38.7356 381.182 33.8746 386.679 33.554C380.994 32.4101 381.144 29.2035 380.432 21.1435Z" fill="#E0E0E0"/>
<path d="M9.1015 2.50186C9.15113 8.12585 8.98602 13.538 2.30966 14.8004C9.36224 14.6852 8.82903 20.094 9.17368 26.8685C9.36224 20.094 9.85124 15.233 15.3475 14.9124C9.66358 13.7674 9.81335 10.5608 9.1015 2.50186Z" fill="#E0E0E0"/>
<path d="M5.29688 127.736C5.33567 123.35 5.20666 119.437 0 118.452C5.50078 118.542 5.08486 114.015 5.35372 108.731C5.50078 114.015 6.163 118.543 10.4494 118.793C6.01504 119.686 5.85264 121.45 5.29688 127.736Z" fill="#E0E0E0"/>
<path d="M394.76 400.928C394.793 405.109 394.681 409.131 390.149 410.07C394.936 409.985 394.575 414.006 394.808 419.042C394.936 414.006 395.268 410.393 399 410.154C395.14 409.302 395.243 406.918 394.76 400.928Z" fill="#455A64"/>
<path d="M298.487 423.913C298.516 427.623 298.417 431.192 294.396 432.025C298.643 431.95 298.322 435.518 298.531 439.986C298.644 435.518 298.939 432.311 302.25 432.1C298.825 431.345 298.915 429.229 298.487 423.913Z" fill="#455A64"/>
<path d="M87.0318 408.16C87.0597 411.679 86.9659 415.065 83.1514 415.855C87.1806 415.783 86.8766 419.168 87.0733 423.407C87.1806 419.168 87.4603 416.127 90.6009 415.926C87.3521 415.21 87.4387 413.202 87.0318 408.16Z" fill="#455A64"/>
<path d="M134.426 312.126C134.462 316.608 134.341 320.923 129.483 321.929C134.616 321.838 134.228 326.15 134.479 331.549C134.616 326.149 134.973 322.274 138.973 322.018C134.835 321.107 134.945 318.55 134.426 312.126Z" fill="#455A64"/>
<path d="M260.639 507.71C260.666 511.041 260.576 514.247 256.965 514.995C260.78 514.926 260.492 518.131 260.678 522.144C260.78 518.131 261.044 515.251 264.018 515.061C260.943 514.383 261.024 512.484 260.639 507.71Z" fill="#455A64"/>
<path d="M280.13 391.909C280.178 397.846 280.018 403.559 273.583 404.891C280.381 404.77 279.867 410.48 280.2 417.631C280.381 410.479 280.853 405.348 286.151 405.009C280.671 403.802 280.817 400.417 280.13 391.909Z" fill="#E5CE00"/>
<path d="M221.481 372.02C221.509 375.46 221.416 378.772 217.686 379.545C221.627 379.475 221.329 382.785 221.522 386.93C221.627 382.785 221.901 379.811 224.972 379.615C221.794 378.913 221.879 376.951 221.481 372.02Z" fill="#E5CE00"/>
<path d="M362.123 292.213C362.149 295.412 362.063 298.491 358.595 299.208C362.258 299.143 361.981 302.22 362.161 306.073C362.258 302.22 362.513 299.455 365.368 299.272C362.414 298.62 362.493 296.797 362.123 292.213Z" fill="#E5CE00"/>
<path d="M42.532 540.986C42.5582 544.264 42.4707 547.42 38.9169 548.155C42.671 548.088 42.3877 551.241 42.5708 555.19C42.671 551.241 42.9317 548.408 45.8576 548.22C42.8316 547.553 42.9119 545.684 42.532 540.986Z" fill="#E5CE00"/>
<path d="M386.824 581.795C386.85 585.074 386.762 588.229 383.209 588.965C386.963 588.898 386.679 592.051 386.863 596C386.963 592.051 387.223 589.217 390.149 589.03C387.122 588.363 387.203 586.493 386.824 581.795Z" fill="#E5CE00"/>
<path d="M105.63 428.126C105.678 434.065 105.518 439.782 99.079 441.116C105.881 440.995 105.367 446.709 105.699 453.864C105.881 446.709 107.078 441.334 112.379 440.996C106.897 439.784 106.317 436.638 105.63 428.126Z" fill="#E5CE00"/>
<path d="M376.205 421.063C376.231 424.333 375.712 427.611 372.168 428.344C375.912 428.277 376.059 431.291 376.243 435.229C376.343 431.291 377.152 428.255 380.07 428.069C377.053 427.404 376.584 425.749 376.205 421.063Z" fill="#EBEBEB"/>
<path d="M98.3635 545.977C98.3897 549.247 97.8709 552.525 94.327 553.258C98.0712 553.191 98.2183 556.205 98.4014 560.143C98.5015 556.205 99.3108 553.169 102.229 552.983C99.2107 552.318 98.7415 550.663 98.3635 545.977Z" fill="#EBEBEB"/>
<path d="M155.217 454.583C155.243 457.853 154.726 461.131 151.181 461.864C154.925 461.797 155.072 464.811 155.255 468.749C155.355 464.811 156.165 461.775 159.082 461.589C156.065 460.924 155.596 459.269 155.217 454.583Z" fill="#EBEBEB"/>
<path d="M165.643 285C165.689 290.657 164.792 296.332 158.658 297.602C165.138 297.487 165.393 302.701 165.71 309.517C165.882 302.701 167.283 297.448 172.333 297.126C167.11 295.973 166.297 293.109 165.643 285Z" fill="#EBEBEB"/>
<path d="M364.176 551.08C364.223 556.85 363.308 562.636 357.053 563.932C363.66 563.815 363.921 569.132 364.244 576.084C364.42 569.132 365.849 563.776 370.999 563.447C365.672 562.271 364.844 559.35 364.176 551.08Z" fill="#EBEBEB"/>
<path d="M14.4814 563.947C14.5265 569.512 13.6441 575.092 7.61105 576.341C13.9834 576.227 14.2351 581.355 14.5473 588.06C14.7169 581.355 16.0945 576.191 21.0612 575.872C15.924 574.74 15.1256 571.922 14.4814 563.947Z" fill="#EBEBEB"/>
<path d="M380.432 308.154C380.481 314.312 380.316 320.239 373.641 321.621C380.693 321.495 380.16 327.418 380.505 334.837C380.693 327.418 381.182 322.095 386.679 321.744C380.994 320.491 381.144 316.98 380.432 308.154Z" fill="#E0E0E0"/>
<path d="M9.1015 287.74C9.15113 293.898 8.98602 299.825 2.30966 301.208C9.36224 301.081 8.82903 307.004 9.17368 314.423C9.36224 307.004 9.85124 301.681 15.3475 301.33C9.66358 300.076 9.81335 296.565 9.1015 287.74Z" fill="#E0E0E0"/>
<path d="M5.29688 424.88C5.33567 420.077 5.20666 415.791 0 414.713C5.50078 414.812 5.08486 409.854 5.35372 404.068C5.50078 409.854 6.163 414.813 10.4494 415.087C6.01504 416.064 5.85264 417.996 5.29688 424.88Z" fill="#E0E0E0"/>
</svg>
